<svg xmlns="http://www.w3.org/2000/svg" viewBox="0 0 25 25" focusable="false" role="img"><path d="M12.5,0C5.6,0,0,5.6,0,12.5c0,5.12,3.08,9.52,7.48,11.45c-0.03-0.87-0.01-1.92,0.22-2.87c0.24-1.01,1.61-6.81,1.61-6.81s-0.4-0.8-0.4-1.98c0-1.85,1.07-3.24,2.41-3.24c1.14,0,1.69,0.85,1.69,1.88c0,1.14-0.73,2.85-1.1,4.44c-0.31,1.33,0.67,2.41,1.97,2.41c2.37,0,3.96-3.04,3.96-6.65c0-2.74-1.85-4.79-5.2-4.79c-3.79,0-6.15,2.83-6.15,5.99c0,1.09,0.32,1.86,0.82,2.45c0.23,0.27,0.26,0.38,0.18,0.7c-0.06,0.23-0.2,0.78-0.25,1c-0.08,0.32-0.34,0.43-0.63,0.31c-1.75-0.71-2.56-2.62-2.56-4.77c0-3.55,3-7.81,8.93-7.81c4.77,0,7.91,3.45,7.91,7.16c0,4.9-2.73,8.57-6.75,8.57c-1.35,0-2.62-0.73-3.05-1.56c0,0-0.73,2.88-0.88,3.44c-0.27,0.96-0.78,1.93-1.26,2.68C10.08,24.82,11.27,25,12.5,25C19.4,25,25,19.4,25,12.5S19.4,0,12.5,0L12.5,0z"></path></svg>